<?xml version="1.0" encoding="UTF-8"?>
<svg id="Layer_1" xmlns="http://www.w3.org/2000/svg" version="1.1" viewBox="0 0 106 69">
  <!-- Generator: Adobe Illustrator 30.4.0, SVG Export Plug-In . SVG Version: 2.1.4 Build 226)  -->
  <defs>
    <style>
      .st0 {
        fill: #332e33;
      }

      .st1 {
        fill: #423742;
      }

      .st2 {
        fill: #424246;
      }

      .st3 {
        fill: #372e3a;
      }

      .st4 {
        fill: #262026;
      }

      .st5 {
        fill: #19151a;
      }

      .st6 {
        fill: #413742;
      }

      .st7 {
        fill: #332c32;
      }

      .st8 {
        fill: #3b323c;
      }

      .st9 {
        fill: #312b35;
      }

      .st10 {
        fill: #1d1d18;
      }

      .st11 {
        fill: #645366;
      }
    </style>
  </defs>
  <polygon class="st5" points="99.1 43.8 101.1 43 99 32.5 98.4 31.6 99.1 43.8"/>
  <polygon class="st10" points="59.5 58.4 76.9 18.7 99.7 32.8 96.3 36.5 59.5 58.4"/>
  <path class="st10" d="M48.4,1.1v-.3l.7.6,10.5,57h-.2c-.2,0-11-57.2-11-57.2h0Z"/>
  <polygon class="st9" points="19.7 43.9 4.5 46.2 .5 39.8 19.7 43.9"/>
  <polygon class="st4" points="98.5 32.5 103 55.2 104.8 48.5 98.5 32.5"/>
  <polygon class="st1" points="19.1 46.4 .5 39.8 29.9 24.6 19.1 46.4"/>
  <polygon class="st7" points="19 18.9 32.2 25.2 .5 39.8 19 18.9"/>
  <polygon class="st3" points="78 49.5 92.5 67.3 100.6 43.1 78 49.5"/>
  <polygon class="st5" points="12.4 40.5 19.1 46.4 20.6 43.3 12.4 40.5"/>
  <polygon class="st0" points="31.7 46.1 39.2 68.1 52.6 55.7 31.7 46.1"/>
  <polygon class="st8" points="48.5 .8 59.5 58.4 12.4 40.5 48.5 .8"/>
  <polygon class="st7" points="48.5 .8 98.7 33 59.5 58.4 48.5 .8"/>
  <polygon class="st1" points="59.5 58.4 100.6 43.3 98.7 33 59.5 58.4"/>
  <polygon class="st1" points="58.3 7.2 100.8 28 98.7 33 58.3 7.2"/>
  <polygon class="st6" points="100.8 28 104.8 48.5 98.5 33 100.8 28"/>
  <path class="st2" d="M21.4,20.4s-.2-4.2.7-7,3.9-3,6.2-4.5c.9-.6-2.6,3.2-3,4.5s1.4,9,1.1,9.6c-.3.8-1.6,1.7-2.8,1.7-1.7,0-2.4-.4-2.7-1.2-.6-1.4.4-1.6.5-3.2h0Z"/>
  <g>
    <path class="st11" d="M95,64.8h-.6v-.3h1.6v.3h-.6v1.8h-.4v-1.8Z"/>
    <path class="st11" d="M96.3,64.5h.3l.7,1,.7-1h.3v2.1h-.4v-1.5l-.6.9h0l-.6-.9v1.5h-.4v-2.1h0Z"/>
  </g>
</svg>